{"title":"Animal Kingdom DVDRiP AC3 XViD - IMAGiNE","uid":5882653,"size":1493433847,"categoryP":"video","categoryS":"movies","magnet":"?xt=urn:btih:fa1b6c3aa5a6bf94c57fc43c22dac27cd7aac6e2&amp;dn=Animal+Kingdom+DVDRiP+AC3+XViD+-+IMAGiNE&amp;tr=udp%3A%2F%2Ftracker.openbittorrent.com%3A80&amp;tr=udp%3A%2F%2Fopen.demonii.com%3A1337&amp;tr=udp%3A%2F%2Ftracker.coppersurfer.tk%3A6969&amp;tr=udp%3A%2F%2Fexodus.desync.com%3A6969","seeders":1,"leechers":0,"uploader":"SAFCukO09","files":103,"time":1286844461,"description":"*********** **** **** *** ******** *********** **** *** **********\n\n*+* +*+*+* *+*+*+ *+* *+* *+* *+* *+* *+*+* *+* *+* \n\n+*+ +*+ +*+*+ +*+ +*+ +*+ +*+ +*+ *+*+*+ +*+ +*+ \n\n+$+ +$+ +*+ +$+ +$++*++$++* *$* +$+ +$+ +*+ +$+ +$++*++$ \n\n+$+ +$+ +$+ +$+ +$+ +$+ +$+$ +$+ +$+ +$+$+$ +$+ \n\n$+$ $+$ $+$ $+$ $+$ $+$ $+$ $+$ $+$ $+$+$ $+$ \n\n$$$$$$$$$$$ $$$ $$$ $$$ $$$ $$$$$$$$ $$$$$$$$$$$ $$$ $$$$ $$$$$$$$$$ \n\n\n\n\n\n\n\n\n\nAnother Fine Release Brought to you from - IMAGiNE \n\n\n\n\n\n******************************************************************************************************************** \n\nAnimal Kingdom DVDRiP AC3 XViD - IMAGiNE\n\n********************************************************************************************************************\n\n\n\nRipper ...........: IMAGiNE IMDB Rating.......:8.2/10 \n\nVideo Codec.......: XVID Release Date......:12/10/10\n\nAudio Codec.......:AC3 Theatre Date......:26/09/10\n\nAudio Bitrate.....:448 Runtime.......:1h 48mn\n\nSubtitles.........:NIL Language..........:ENGLISH\n\nResolution...... 720x 304 IMDb URL.......... http://www.imdb.com/title/tt1313092/\n\n\n\nDETAILS:\n\n\n\nVideo\n\nID : 0\n\nFormat : MPEG-4 Visual\n\nFormat profile : Advanced Simple@L5\n\nFormat settings, BVOP : Yes\n\nFormat settings, QPel : No\n\nFormat settings, GMC : No warppoints\n\nFormat settings, Matrix : Default (H.263)\n\nMuxing mode : Packed bitstream\n\nCodec ID : XVID\n\nCodec ID/Hint : XviD\n\nDuration : 1h 48mn\n\nBit rate : 1 358 Kbps\n\nWidth : 720 pixels\n\nHeight : 304 pixels\n\nDisplay aspect ratio : 2.35\n\nFrame rate : 25.000 fps\n\nResolution : 24 bits\n\nColorimetry : 4:2:0\n\nScan type : Progressive\n\nBits/(Pixel*Frame) : 0.248\n\nStream size : 1.03 GiB (75%)\n\nWriting library : XviD 1.1.2 (UTC 2006-11-01)\n\n\n\nAudio\n\nID : 1\n\nFormat : AC-3\n\nFormat/Info : Audio Coding 3\n\nCodec ID : 2000\n\nDuration : 1h 48mn\n\nBit rate mode : Constant\n\nBit rate : 448 Kbps\n\nChannel(s) : 6 channels\n\nChannel positions : Front: L C R, Surround: L R, LFE\n\nSampling rate : 48.0 KHz\n\nStream size : 347 MiB (25%)\n\nAlignment : Aligned on interleaves\n\nInterleave, duration : 40 ms (1.00 video frame)\n\nInterleave, preload duration : 512 ms\n\n\n\n\n\nSOURCES:\n\n\n\nVIDEO:Animal Kingdom DVDR ..............Thanks Boobies \n\nAUDIO:Animal Kingdom DVDR ..............Thanks Boobies\n\n\n\nNOTES:\n\n\n\nIMAGiNE bringing you another release..........Animal Kingdom\n\n\n\nHeres a rip of the retail dvdr now.....after we brought you the dvdscr 7 days ago.\n\nThis is a straight forward rip of the dvdr with some slight tweaking inc brightness,chroma,sharpeness\n\nThe audio was just demuxed from the dvdr and then remuxed to our rip afterwards.\n\n\n\nEnjoy folks","torrent":{"xt":"urn:btih:fa1b6c3aa5a6bf94c57fc43c22dac27cd7aac6e2","amp;dn":"Animal+Kingdom+DVDRiP+AC3+XViD+-+IMAGiNE","amp;tr":["udp%3A%2F%2Ftracker.openbittorrent.com%3A80","udp%3A%2F%2Fopen.demonii.com%3A1337","udp%3A%2F%2Ftracker.coppersurfer.tk%3A6969","udp%3A%2F%2Fexodus.desync.com%3A6969"],"infoHash":"fa1b6c3aa5a6bf94c57fc43c22dac27cd7aac6e2","infoHashBuffer":{"type":"Buffer","data":[250,27,108,58,165,166,191,148,197,127,196,60,34,218,194,124,215,170,198,226]},"announce":[],"urlList":[]}}